<?xml version="1.0" encoding="UTF-8" standalone="no"?>
<svg
   width="71mm"
   height="72mm"
   viewBox="12 12 71 72"
   version="1.1"
   id="svg1"
   sodipodi:docname="logo_45degrees.svg"
   xml:space="preserve"
   inkscape:version="1.3 (0e150ed6c4, 2023-07-21)"
   inkscape:export-filename="logo_45degrees_300dpi.png"
   inkscape:export-xdpi="300"
   inkscape:export-ydpi="300"
   xmlns:inkscape="http://www.inkscape.org/namespaces/inkscape"
   xmlns:sodipodi="http://sodipodi.sourceforge.net/DTD/sodipodi-0.dtd"
   xmlns="http://www.w3.org/2000/svg"
   xmlns:svg="http://www.w3.org/2000/svg"
   xmlns:rdf="http://www.w3.org/1999/02/22-rdf-syntax-ns#"
   xmlns:cc="http://creativecommons.org/ns#"
   xmlns:dc="http://purl.org/dc/elements/1.1/"><defs
     id="defs1" /><sodipodi:namedview
     id="namedview1"
     pagecolor="#ffffff"
     bordercolor="#000000"
     borderopacity="0.25"
     inkscape:showpageshadow="2"
     inkscape:pageopacity="0.0"
     inkscape:pagecheckerboard="0"
     inkscape:deskcolor="#d1d1d1"
     inkscape:document-units="mm"
     inkscape:zoom="1.2054151"
     inkscape:cx="126.09764"
     inkscape:cy="101.20995"
     inkscape:window-width="1280"
     inkscape:window-height="650"
     inkscape:window-x="-6"
     inkscape:window-y="-6"
     inkscape:window-maximized="1"
     inkscape:current-layer="svg1" /><title
     id="title1">OpenSCAD Model</title><path
     style="display:inline;fill:#ffc700;fill-opacity:1"
     d="m 24.979505,75.467461 2.798729,2.074651 2.987527,1.791103 3.149453,1.489168 3.280269,1.174504 3.37926,0.846406 3.44644,0.510532 3.478965,0.171121 3.480381,-0.17112 3.44573,-0.511238 3.379264,-0.846409 3.280268,-1.17309 3.148747,-1.489872 2.988939,-1.791105 2.798024,-2.075357 2.580938,-2.339109 2.339817,-2.581645 2.075357,-2.798024 1.791104,-2.98894 1.489871,-3.148747 1.173092,-3.280269 0.846408,-3.379262 0.511238,-3.445732 0.17112,-3.480379 -0.171121,-3.478965 -0.510531,-3.44644 -0.846407,-3.379262 -1.174505,-3.280268 -1.489167,-3.149452 -1.791102,-2.987527 -2.074652,-2.798729 -2.340522,-2.58094 -2.58094,-2.340522 -2.798729,-2.074652 -2.987527,-1.791102 -3.149452,-1.489167 -3.280268,-1.174505 -3.379262,-0.846407 -3.44644,-0.510531 -3.478965,-0.171121 -3.480379,0.17112 -3.445732,0.511238 -3.379262,0.846408 -3.280269,1.173092 -3.148747,1.489871 -2.98894,1.791104 -2.798024,2.075357 -2.581645,2.339817 -2.339109,2.580938 -2.075357,2.798024 -1.791105,2.988939 -1.489872,3.148747 -1.17309,3.280268 -0.846409,3.379264 -0.511238,3.44573 -0.17112,3.480381 0.171121,3.478965 0.510532,3.44644 0.846406,3.37926 1.174504,3.280269 1.489168,3.149453 1.791103,2.987527 2.074651,2.798729 2.339815,2.581647 z"
     id="path1" /><path
     style="fill:#630063;fill-opacity:1"
     d="m 36.21602,70.61282 -1.697055,-0.08344 -1.679378,-0.249608 -1.648267,-0.412243 -1.599475,-0.572754 -1.535129,-0.7262 -1.457347,-0.873279 -1.364716,-1.012575 -1.258651,-1.139857 -1.140563,-1.259357 -1.011871,-1.364009 -0.873277,-1.457347 -0.726904,-1.535836 -0.572049,-1.598767 -0.412952,-1.648973 -0.249608,-1.67938 -0.08344,-1.697055 0.08344,-1.697056 0.249609,-1.679379 0.412952,-1.648974 0.57205,-1.598769 0.726905,-1.535836 0.872569,-1.45664 1.012577,-1.364716 1.140564,-1.259358 1.25865,-1.139856 1.364716,-1.012577 1.457347,-0.873277 1.535126,-0.726197 1.599478,-0.572757 1.648265,-0.412244 1.67938,-0.249609 1.697055,-0.08344 z"
     id="path6" /><path
     style="fill:#630063;fill-opacity:1"
     d="M 41.84954,45.384194 67.187227,70.72188 41.849542,70.721243 Z"
     id="path5" /><path
     style="fill:#630063;fill-opacity:1"
     d="m 44.8604,42.373331 12.700984,-6.8e-5 -4.26e-4,8.384164 -2.12e-4,7.1e-5 v 4.25254 l 4.253247,7.07e-4 v -9.9e-4 l 8.383812,-3.53e-4 2.84e-4,12.701617 z"
     id="path4" /><path
     style="fill:#630063;fill-opacity:1"
     d="m 61.814559,42.373333 8.382891,-2e-6 2.13e-4,8.383531 -8.383457,4.22e-4 z"
     id="path3" /><path
     style="fill:#630063;fill-opacity:1"
     d="m 35.800713,33.36338 0.412243,-1.648268 0.572756,-1.599475 0.726198,-1.535128 0.873277,-1.457349 1.011872,-1.364009 1.140563,-1.259356 1.259357,-1.140563 1.364009,-1.011872 1.457347,-0.873277 1.535836,-0.726905 1.598766,-0.57205 1.648267,-0.412243 1.680085,-0.250316 1.69635,-0.08273 1.697056,0.08344 1.680087,0.248903 1.648266,0.413658 1.599473,0.571343 1.535837,0.726905 1.457347,0.873275 1.364008,1.011873 1.258649,1.141269 1.140563,1.257943 1.012578,1.364716 0.873277,1.457348 0.7262,1.535128 0.572046,1.600184 0.412953,1.647558 0.248901,1.680086 0.08344,1.697055 -34.620654,-7.06e-4 0.08344,-1.697058 z"
     id="path2" /><path
     d="m 41.835773,70.601184 -8e-6,-25.268029 25.268038,25.268036 3.005909,10e-7 V 67.593018 L 44.842737,42.325194 h 12.704021 v 12.637978 l 12.563026,-2e-6 -1e-6,-4.252963 h -8.31006 l 10e-7,-8.385013 8.310061,-1e-6 -7.3e-5,-5.719998 -33.994866,-2e-6 -2.7e-5,33.996027 z"
     stroke="#000000"
     fill="#d3d3d3"
     stroke-width="0.5"
     id="path1-0"
     style="fill:#ffc700;fill-opacity:1;stroke:none" /><metadata
     id="metadata1"><rdf:RDF><cc:Work
         rdf:about=""><dc:title>OpenSCAD Model</dc:title></cc:Work></rdf:RDF></metadata></svg>
